<?xml version="1.0" encoding="utf-8" standalone="no"?>
<!DOCTYPE svg PUBLIC "-//W3C//DTD SVG 1.1//EN"
  "http://www.w3.org/Graphics/SVG/1.1/DTD/svg11.dtd">
<svg xmlns:xlink="http://www.w3.org/1999/xlink" width="443.837656pt" height="335.975469pt" viewBox="0 0 443.837656 335.975469" xmlns="http://www.w3.org/2000/svg" version="1.1">
 <metadata>
  <rdf:RDF xmlns:dc="http://purl.org/dc/elements/1.1/" xmlns:cc="http://creativecommons.org/ns#" xmlns:rdf="http://www.w3.org/1999/02/22-rdf-syntax-ns#">
   <cc:Work>
    <dc:type rdf:resource="http://purl.org/dc/dcmitype/StillImage"/>
    <dc:date>2026-04-27T18:01:03.817147</dc:date>
    <dc:format>image/svg+xml</dc:format>
    <dc:creator>
     <cc:Agent>
      <dc:title>Matplotlib v3.9.4, https://matplotlib.org/</dc:title>
     </cc:Agent>
    </dc:creator>
   </cc:Work>
  </rdf:RDF>
 </metadata>
 <defs>
  <style type="text/css">*{stroke-linejoin: round; stroke-linecap: butt}</style>
 </defs>
 <g id="figure_1">
  <g id="patch_1">
   <path d="M 0 335.975469 
L 443.837656 335.975469 
L 443.837656 0 
L 0 0 
z
" style="fill: #ffffff"/>
  </g>
  <g id="axes_1">
   <g id="patch_2">
    <path d="M 46.037656 299.135625 
L 436.637656 299.135625 
L 436.637656 21.935625 
L 46.037656 21.935625 
z
" style="fill: #ffffff"/>
   </g>
   <g id="matplotlib.axis_1">
    <g id="xtick_1">
     <g id="text_1">
      <!-- Corn -->
      <g style="fill: #262626" transform="translate(133.934609 312.577656) scale(0.09 -0.09)">
       <defs>
        <path id="ArialMT-43" d="M 3763 1606 
L 4369 1453 
Q 4178 706 3683 314 
Q 3188 -78 2472 -78 
Q 1731 -78 1267 223 
Q 803 525 561 1097 
Q 319 1669 319 2325 
Q 319 3041 592 3573 
Q 866 4106 1370 4382 
Q 1875 4659 2481 4659 
Q 3169 4659 3637 4309 
Q 4106 3959 4291 3325 
L 3694 3184 
Q 3534 3684 3231 3912 
Q 2928 4141 2469 4141 
Q 1941 4141 1586 3887 
Q 1231 3634 1087 3207 
Q 944 2781 944 2328 
Q 944 1744 1114 1308 
Q 1284 872 1643 656 
Q 2003 441 2422 441 
Q 2931 441 3284 734 
Q 3638 1028 3763 1606 
z
" transform="scale(0.015625)"/>
        <path id="ArialMT-6f" d="M 213 1659 
Q 213 2581 725 3025 
Q 1153 3394 1769 3394 
Q 2453 3394 2887 2945 
Q 3322 2497 3322 1706 
Q 3322 1066 3130 698 
Q 2938 331 2570 128 
Q 2203 -75 1769 -75 
Q 1072 -75 642 372 
Q 213 819 213 1659 
z
M 791 1659 
Q 791 1022 1069 705 
Q 1347 388 1769 388 
Q 2188 388 2466 706 
Q 2744 1025 2744 1678 
Q 2744 2294 2464 2611 
Q 2184 2928 1769 2928 
Q 1347 2928 1069 2612 
Q 791 2297 791 1659 
z
" transform="scale(0.015625)"/>
        <path id="ArialMT-72" d="M 416 0 
L 416 3319 
L 922 3319 
L 922 2816 
Q 1116 3169 1280 3281 
Q 1444 3394 1641 3394 
Q 1925 3394 2219 3213 
L 2025 2691 
Q 1819 2813 1613 2813 
Q 1428 2813 1281 2702 
Q 1134 2591 1072 2394 
Q 978 2094 978 1738 
L 978 0 
L 416 0 
z
" transform="scale(0.015625)"/>
        <path id="ArialMT-6e" d="M 422 0 
L 422 3319 
L 928 3319 
L 928 2847 
Q 1294 3394 1984 3394 
Q 2284 3394 2536 3286 
Q 2788 3178 2913 3003 
Q 3038 2828 3088 2588 
Q 3119 2431 3119 2041 
L 3119 0 
L 2556 0 
L 2556 2019 
Q 2556 2363 2490 2533 
Q 2425 2703 2258 2804 
Q 2091 2906 1866 2906 
Q 1506 2906 1245 2678 
Q 984 2450 984 1813 
L 984 0 
L 422 0 
z
" transform="scale(0.015625)"/>
       </defs>
       <use xlink:href="#ArialMT-43"/>
       <use xlink:href="#ArialMT-6f" x="72.216797"/>
       <use xlink:href="#ArialMT-72" x="127.832031"/>
       <use xlink:href="#ArialMT-6e" x="161.132812"/>
      </g>
     </g>
    </g>
    <g id="xtick_2">
     <g id="text_2">
      <!-- Soybean -->
      <g style="fill: #262626" transform="translate(321.223906 312.687344) scale(0.09 -0.09)">
       <defs>
        <path id="ArialMT-53" d="M 288 1472 
L 859 1522 
Q 900 1178 1048 958 
Q 1197 738 1509 602 
Q 1822 466 2213 466 
Q 2559 466 2825 569 
Q 3091 672 3220 851 
Q 3350 1031 3350 1244 
Q 3350 1459 3225 1620 
Q 3100 1781 2813 1891 
Q 2628 1963 1997 2114 
Q 1366 2266 1113 2400 
Q 784 2572 623 2826 
Q 463 3081 463 3397 
Q 463 3744 659 4045 
Q 856 4347 1234 4503 
Q 1613 4659 2075 4659 
Q 2584 4659 2973 4495 
Q 3363 4331 3572 4012 
Q 3781 3694 3797 3291 
L 3216 3247 
Q 3169 3681 2898 3903 
Q 2628 4125 2100 4125 
Q 1550 4125 1298 3923 
Q 1047 3722 1047 3438 
Q 1047 3191 1225 3031 
Q 1400 2872 2139 2705 
Q 2878 2538 3153 2413 
Q 3553 2228 3743 1945 
Q 3934 1663 3934 1294 
Q 3934 928 3725 604 
Q 3516 281 3123 101 
Q 2731 -78 2241 -78 
Q 1619 -78 1198 103 
Q 778 284 539 648 
Q 300 1013 288 1472 
z
" transform="scale(0.015625)"/>
        <path id="ArialMT-79" d="M 397 -1278 
L 334 -750 
Q 519 -800 656 -800 
Q 844 -800 956 -737 
Q 1069 -675 1141 -563 
Q 1194 -478 1313 -144 
Q 1328 -97 1363 -6 
L 103 3319 
L 709 3319 
L 1400 1397 
Q 1534 1031 1641 628 
Q 1738 1016 1872 1384 
L 2581 3319 
L 3144 3319 
L 1881 -56 
Q 1678 -603 1566 -809 
Q 1416 -1088 1222 -1217 
Q 1028 -1347 759 -1347 
Q 597 -1347 397 -1278 
z
" transform="scale(0.015625)"/>
        <path id="ArialMT-62" d="M 941 0 
L 419 0 
L 419 4581 
L 981 4581 
L 981 2947 
Q 1338 3394 1891 3394 
Q 2197 3394 2470 3270 
Q 2744 3147 2920 2923 
Q 3097 2700 3197 2384 
Q 3297 2069 3297 1709 
Q 3297 856 2875 390 
Q 2453 -75 1863 -75 
Q 1275 -75 941 416 
L 941 0 
z
M 934 1684 
Q 934 1088 1097 822 
Q 1363 388 1816 388 
Q 2184 388 2453 708 
Q 2722 1028 2722 1663 
Q 2722 2313 2464 2622 
Q 2206 2931 1841 2931 
Q 1472 2931 1203 2611 
Q 934 2291 934 1684 
z
" transform="scale(0.015625)"/>
        <path id="ArialMT-65" d="M 2694 1069 
L 3275 997 
Q 3138 488 2766 206 
Q 2394 -75 1816 -75 
Q 1088 -75 661 373 
Q 234 822 234 1631 
Q 234 2469 665 2931 
Q 1097 3394 1784 3394 
Q 2450 3394 2872 2941 
Q 3294 2488 3294 1666 
Q 3294 1616 3291 1516 
L 816 1516 
Q 847 969 1125 678 
Q 1403 388 1819 388 
Q 2128 388 2347 550 
Q 2566 713 2694 1069 
z
M 847 1978 
L 2700 1978 
Q 2663 2397 2488 2606 
Q 2219 2931 1791 2931 
Q 1403 2931 1139 2672 
Q 875 2413 847 1978 
z
" transform="scale(0.015625)"/>
        <path id="ArialMT-61" d="M 2588 409 
Q 2275 144 1986 34 
Q 1697 -75 1366 -75 
Q 819 -75 525 192 
Q 231 459 231 875 
Q 231 1119 342 1320 
Q 453 1522 633 1644 
Q 813 1766 1038 1828 
Q 1203 1872 1538 1913 
Q 2219 1994 2541 2106 
Q 2544 2222 2544 2253 
Q 2544 2597 2384 2738 
Q 2169 2928 1744 2928 
Q 1347 2928 1158 2789 
Q 969 2650 878 2297 
L 328 2372 
Q 403 2725 575 2942 
Q 747 3159 1072 3276 
Q 1397 3394 1825 3394 
Q 2250 3394 2515 3294 
Q 2781 3194 2906 3042 
Q 3031 2891 3081 2659 
Q 3109 2516 3109 2141 
L 3109 1391 
Q 3109 606 3145 398 
Q 3181 191 3288 0 
L 2700 0 
Q 2613 175 2588 409 
z
M 2541 1666 
Q 2234 1541 1622 1453 
Q 1275 1403 1131 1340 
Q 988 1278 909 1158 
Q 831 1038 831 891 
Q 831 666 1001 516 
Q 1172 366 1500 366 
Q 1825 366 2078 508 
Q 2331 650 2450 897 
Q 2541 1088 2541 1459 
L 2541 1666 
z
" transform="scale(0.015625)"/>
       </defs>
       <use xlink:href="#ArialMT-53"/>
       <use xlink:href="#ArialMT-6f" x="66.699219"/>
       <use xlink:href="#ArialMT-79" x="122.314453"/>
       <use xlink:href="#ArialMT-62" x="172.314453"/>
       <use xlink:href="#ArialMT-65" x="227.929688"/>
       <use xlink:href="#ArialMT-61" x="283.544922"/>
       <use xlink:href="#ArialMT-6e" x="339.160156"/>
      </g>
     </g>
    </g>
    <g id="text_3">
     <!-- Species -->
     <g style="fill: #262626" transform="translate(221.771406 326.589219) scale(0.11 -0.11)">
      <defs>
       <path id="ArialMT-70" d="M 422 -1272 
L 422 3319 
L 934 3319 
L 934 2888 
Q 1116 3141 1344 3267 
Q 1572 3394 1897 3394 
Q 2322 3394 2647 3175 
Q 2972 2956 3137 2557 
Q 3303 2159 3303 1684 
Q 3303 1175 3120 767 
Q 2938 359 2589 142 
Q 2241 -75 1856 -75 
Q 1575 -75 1351 44 
Q 1128 163 984 344 
L 984 -1272 
L 422 -1272 
z
M 931 1641 
Q 931 1000 1190 694 
Q 1450 388 1819 388 
Q 2194 388 2461 705 
Q 2728 1022 2728 1688 
Q 2728 2322 2467 2637 
Q 2206 2953 1844 2953 
Q 1484 2953 1207 2617 
Q 931 2281 931 1641 
z
" transform="scale(0.015625)"/>
       <path id="ArialMT-63" d="M 2588 1216 
L 3141 1144 
Q 3050 572 2676 248 
Q 2303 -75 1759 -75 
Q 1078 -75 664 370 
Q 250 816 250 1647 
Q 250 2184 428 2587 
Q 606 2991 970 3192 
Q 1334 3394 1763 3394 
Q 2303 3394 2647 3120 
Q 2991 2847 3088 2344 
L 2541 2259 
Q 2463 2594 2264 2762 
Q 2066 2931 1784 2931 
Q 1359 2931 1093 2626 
Q 828 2322 828 1663 
Q 828 994 1084 691 
Q 1341 388 1753 388 
Q 2084 388 2306 591 
Q 2528 794 2588 1216 
z
" transform="scale(0.015625)"/>
       <path id="ArialMT-69" d="M 425 3934 
L 425 4581 
L 988 4581 
L 988 3934 
L 425 3934 
z
M 425 0 
L 425 3319 
L 988 3319 
L 988 0 
L 425 0 
z
" transform="scale(0.015625)"/>
       <path id="ArialMT-73" d="M 197 991 
L 753 1078 
Q 800 744 1014 566 
Q 1228 388 1613 388 
Q 2000 388 2187 545 
Q 2375 703 2375 916 
Q 2375 1106 2209 1216 
Q 2094 1291 1634 1406 
Q 1016 1563 777 1677 
Q 538 1791 414 1992 
Q 291 2194 291 2438 
Q 291 2659 392 2848 
Q 494 3038 669 3163 
Q 800 3259 1026 3326 
Q 1253 3394 1513 3394 
Q 1903 3394 2198 3281 
Q 2494 3169 2634 2976 
Q 2775 2784 2828 2463 
L 2278 2388 
Q 2241 2644 2061 2787 
Q 1881 2931 1553 2931 
Q 1166 2931 1000 2803 
Q 834 2675 834 2503 
Q 834 2394 903 2306 
Q 972 2216 1119 2156 
Q 1203 2125 1616 2013 
Q 2213 1853 2448 1751 
Q 2684 1650 2818 1456 
Q 2953 1263 2953 975 
Q 2953 694 2789 445 
Q 2625 197 2315 61 
Q 2006 -75 1616 -75 
Q 969 -75 630 194 
Q 291 463 197 991 
z
" transform="scale(0.015625)"/>
      </defs>
      <use xlink:href="#ArialMT-53"/>
      <use xlink:href="#ArialMT-70" x="66.699219"/>
      <use xlink:href="#ArialMT-65" x="122.314453"/>
      <use xlink:href="#ArialMT-63" x="177.929688"/>
      <use xlink:href="#ArialMT-69" x="227.929688"/>
      <use xlink:href="#ArialMT-65" x="250.146484"/>
      <use xlink:href="#ArialMT-73" x="305.761719"/>
     </g>
    </g>
   </g>
   <g id="matplotlib.axis_2">
    <g id="ytick_1">
     <g id="line2d_1">
      <path d="M 46.037656 288.441125 
L 436.637656 288.441125 
" clip-path="url(#pf11f3800f7)" style="fill: none; stroke: #cccccc; stroke-opacity: 0.25; stroke-width: 0.8; stroke-linecap: round"/>
     </g>
     <g id="text_4">
      <!-- 0.50 -->
      <g style="fill: #262626" transform="translate(21.522812 291.66214) scale(0.09 -0.09)">
       <defs>
        <path id="ArialMT-30" d="M 266 2259 
Q 266 3072 433 3567 
Q 600 4063 929 4331 
Q 1259 4600 1759 4600 
Q 2128 4600 2406 4451 
Q 2684 4303 2865 4023 
Q 3047 3744 3150 3342 
Q 3253 2941 3253 2259 
Q 3253 1453 3087 958 
Q 2922 463 2592 192 
Q 2263 -78 1759 -78 
Q 1097 -78 719 397 
Q 266 969 266 2259 
z
M 844 2259 
Q 844 1131 1108 757 
Q 1372 384 1759 384 
Q 2147 384 2411 759 
Q 2675 1134 2675 2259 
Q 2675 3391 2411 3762 
Q 2147 4134 1753 4134 
Q 1366 4134 1134 3806 
Q 844 3388 844 2259 
z
" transform="scale(0.015625)"/>
        <path id="ArialMT-2e" d="M 581 0 
L 581 641 
L 1222 641 
L 1222 0 
L 581 0 
z
" transform="scale(0.015625)"/>
        <path id="ArialMT-35" d="M 266 1200 
L 856 1250 
Q 922 819 1161 601 
Q 1400 384 1738 384 
Q 2144 384 2425 690 
Q 2706 997 2706 1503 
Q 2706 1984 2436 2262 
Q 2166 2541 1728 2541 
Q 1456 2541 1237 2417 
Q 1019 2294 894 2097 
L 366 2166 
L 809 4519 
L 3088 4519 
L 3088 3981 
L 1259 3981 
L 1013 2750 
Q 1425 3038 1878 3038 
Q 2478 3038 2890 2622 
Q 3303 2206 3303 1553 
Q 3303 931 2941 478 
Q 2500 -78 1738 -78 
Q 1113 -78 717 272 
Q 322 622 266 1200 
z
" transform="scale(0.015625)"/>
       </defs>
       <use xlink:href="#ArialMT-30"/>
       <use xlink:href="#ArialMT-2e" x="55.615234"/>
       <use xlink:href="#ArialMT-35" x="83.398438"/>
       <use xlink:href="#ArialMT-30" x="139.013672"/>
      </g>
     </g>
    </g>
    <g id="ytick_2">
     <g id="line2d_2">
      <path d="M 46.037656 257.038692 
L 436.637656 257.038692 
" clip-path="url(#pf11f3800f7)" style="fill: none; stroke: #cccccc; stroke-opacity: 0.25; stroke-width: 0.8; stroke-linecap: round"/>
     </g>
     <g id="text_5">
      <!-- 0.75 -->
      <g style="fill: #262626" transform="translate(21.522812 260.259708) scale(0.09 -0.09)">
       <defs>
        <path id="ArialMT-37" d="M 303 3981 
L 303 4522 
L 3269 4522 
L 3269 4084 
Q 2831 3619 2401 2847 
Q 1972 2075 1738 1259 
Q 1569 684 1522 0 
L 944 0 
Q 953 541 1156 1306 
Q 1359 2072 1739 2783 
Q 2119 3494 2547 3981 
L 303 3981 
z
" transform="scale(0.015625)"/>
       </defs>
       <use xlink:href="#ArialMT-30"/>
       <use xlink:href="#ArialMT-2e" x="55.615234"/>
       <use xlink:href="#ArialMT-37" x="83.398438"/>
       <use xlink:href="#ArialMT-35" x="139.013672"/>
      </g>
     </g>
    </g>
    <g id="ytick_3">
     <g id="line2d_3">
      <path d="M 46.037656 225.636259 
L 436.637656 225.636259 
" clip-path="url(#pf11f3800f7)" style="fill: none; stroke: #cccccc; stroke-opacity: 0.25; stroke-width: 0.8; stroke-linecap: round"/>
     </g>
     <g id="text_6">
      <!-- 1.00 -->
      <g style="fill: #262626" transform="translate(21.522812 228.857275) scale(0.09 -0.09)">
       <defs>
        <path id="ArialMT-31" d="M 2384 0 
L 1822 0 
L 1822 3584 
Q 1619 3391 1289 3197 
Q 959 3003 697 2906 
L 697 3450 
Q 1169 3672 1522 3987 
Q 1875 4303 2022 4600 
L 2384 4600 
L 2384 0 
z
" transform="scale(0.015625)"/>
       </defs>
       <use xlink:href="#ArialMT-31"/>
       <use xlink:href="#ArialMT-2e" x="55.615234"/>
       <use xlink:href="#ArialMT-30" x="83.398438"/>
       <use xlink:href="#ArialMT-30" x="139.013672"/>
      </g>
     </g>
    </g>
    <g id="ytick_4">
     <g id="line2d_4">
      <path d="M 46.037656 194.233827 
L 436.637656 194.233827 
" clip-path="url(#pf11f3800f7)" style="fill: none; stroke: #cccccc; stroke-opacity: 0.25; stroke-width: 0.8; stroke-linecap: round"/>
     </g>
     <g id="text_7">
      <!-- 1.25 -->
      <g style="fill: #262626" transform="translate(21.522812 197.454842) scale(0.09 -0.09)">
       <defs>
        <path id="ArialMT-32" d="M 3222 541 
L 3222 0 
L 194 0 
Q 188 203 259 391 
Q 375 700 629 1000 
Q 884 1300 1366 1694 
Q 2113 2306 2375 2664 
Q 2638 3022 2638 3341 
Q 2638 3675 2398 3904 
Q 2159 4134 1775 4134 
Q 1369 4134 1125 3890 
Q 881 3647 878 3216 
L 300 3275 
Q 359 3922 746 4261 
Q 1134 4600 1788 4600 
Q 2447 4600 2831 4234 
Q 3216 3869 3216 3328 
Q 3216 3053 3103 2787 
Q 2991 2522 2730 2228 
Q 2469 1934 1863 1422 
Q 1356 997 1212 845 
Q 1069 694 975 541 
L 3222 541 
z
" transform="scale(0.015625)"/>
       </defs>
       <use xlink:href="#ArialMT-31"/>
       <use xlink:href="#ArialMT-2e" x="55.615234"/>
       <use xlink:href="#ArialMT-32" x="83.398438"/>
       <use xlink:href="#ArialMT-35" x="139.013672"/>
      </g>
     </g>
    </g>
    <g id="ytick_5">
     <g id="line2d_5">
      <path d="M 46.037656 162.831394 
L 436.637656 162.831394 
" clip-path="url(#pf11f3800f7)" style="fill: none; stroke: #cccccc; stroke-opacity: 0.25; stroke-width: 0.8; stroke-linecap: round"/>
     </g>
     <g id="text_8">
      <!-- 1.50 -->
      <g style="fill: #262626" transform="translate(21.522812 166.05241) scale(0.09 -0.09)">
       <use xlink:href="#ArialMT-31"/>
       <use xlink:href="#ArialMT-2e" x="55.615234"/>
       <use xlink:href="#ArialMT-35" x="83.398438"/>
       <use xlink:href="#ArialMT-30" x="139.013672"/>
      </g>
     </g>
    </g>
    <g id="ytick_6">
     <g id="line2d_6">
      <path d="M 46.037656 131.428961 
L 436.637656 131.428961 
" clip-path="url(#pf11f3800f7)" style="fill: none; stroke: #cccccc; stroke-opacity: 0.25; stroke-width: 0.8; stroke-linecap: round"/>
     </g>
     <g id="text_9">
      <!-- 1.75 -->
      <g style="fill: #262626" transform="translate(21.522812 134.649977) scale(0.09 -0.09)">
       <use xlink:href="#ArialMT-31"/>
       <use xlink:href="#ArialMT-2e" x="55.615234"/>
       <use xlink:href="#ArialMT-37" x="83.398438"/>
       <use xlink:href="#ArialMT-35" x="139.013672"/>
      </g>
     </g>
    </g>
    <g id="ytick_7">
     <g id="line2d_7">
      <path d="M 46.037656 100.026529 
L 436.637656 100.026529 
" clip-path="url(#pf11f3800f7)" style="fill: none; stroke: #cccccc; stroke-opacity: 0.25; stroke-width: 0.8; stroke-linecap: round"/>
     </g>
     <g id="text_10">
      <!-- 2.00 -->
      <g style="fill: #262626" transform="translate(21.522812 103.247544) scale(0.09 -0.09)">
       <use xlink:href="#ArialMT-32"/>
       <use xlink:href="#ArialMT-2e" x="55.615234"/>
       <use xlink:href="#ArialMT-30" x="83.398438"/>
       <use xlink:href="#ArialMT-30" x="139.013672"/>
      </g>
     </g>
    </g>
    <g id="ytick_8">
     <g id="line2d_8">
      <path d="M 46.037656 68.624096 
L 436.637656 68.624096 
" clip-path="url(#pf11f3800f7)" style="fill: none; stroke: #cccccc; stroke-opacity: 0.25; stroke-width: 0.8; stroke-linecap: round"/>
     </g>
     <g id="text_11">
      <!-- 2.25 -->
      <g style="fill: #262626" transform="translate(21.522812 71.845112) scale(0.09 -0.09)">
       <use xlink:href="#ArialMT-32"/>
       <use xlink:href="#ArialMT-2e" x="55.615234"/>
       <use xlink:href="#ArialMT-32" x="83.398438"/>
       <use xlink:href="#ArialMT-35" x="139.013672"/>
      </g>
     </g>
    </g>
    <g id="ytick_9">
     <g id="line2d_9">
      <path d="M 46.037656 37.221663 
L 436.637656 37.221663 
" clip-path="url(#pf11f3800f7)" style="fill: none; stroke: #cccccc; stroke-opacity: 0.25; stroke-width: 0.8; stroke-linecap: round"/>
     </g>
     <g id="text_12">
      <!-- 2.50 -->
      <g style="fill: #262626" transform="translate(21.522812 40.442679) scale(0.09 -0.09)">
       <use xlink:href="#ArialMT-32"/>
       <use xlink:href="#ArialMT-2e" x="55.615234"/>
       <use xlink:href="#ArialMT-35" x="83.398438"/>
       <use xlink:href="#ArialMT-30" x="139.013672"/>
      </g>
     </g>
    </g>
    <g id="text_13">
     <!-- Leaf area (pixels²) -->
     <g style="fill: #262626" transform="translate(15.207656 204.857031) rotate(-90) scale(0.11 -0.11)">
      <defs>
       <path id="ArialMT-4c" d="M 469 0 
L 469 4581 
L 1075 4581 
L 1075 541 
L 3331 541 
L 3331 0 
L 469 0 
z
" transform="scale(0.015625)"/>
       <path id="ArialMT-66" d="M 556 0 
L 556 2881 
L 59 2881 
L 59 3319 
L 556 3319 
L 556 3672 
Q 556 4006 616 4169 
Q 697 4388 901 4523 
Q 1106 4659 1475 4659 
Q 1713 4659 2000 4603 
L 1916 4113 
Q 1741 4144 1584 4144 
Q 1328 4144 1222 4034 
Q 1116 3925 1116 3625 
L 1116 3319 
L 1763 3319 
L 1763 2881 
L 1116 2881 
L 1116 0 
L 556 0 
z
" transform="scale(0.015625)"/>
       <path id="ArialMT-20" transform="scale(0.015625)"/>
       <path id="ArialMT-28" d="M 1497 -1347 
Q 1031 -759 709 28 
Q 388 816 388 1659 
Q 388 2403 628 3084 
Q 909 3875 1497 4659 
L 1900 4659 
Q 1522 4009 1400 3731 
Q 1209 3300 1100 2831 
Q 966 2247 966 1656 
Q 966 153 1900 -1347 
L 1497 -1347 
z
" transform="scale(0.015625)"/>
       <path id="ArialMT-78" d="M 47 0 
L 1259 1725 
L 138 3319 
L 841 3319 
L 1350 2541 
Q 1494 2319 1581 2169 
Q 1719 2375 1834 2534 
L 2394 3319 
L 3066 3319 
L 1919 1756 
L 3153 0 
L 2463 0 
L 1781 1031 
L 1600 1309 
L 728 0 
L 47 0 
z
" transform="scale(0.015625)"/>
       <path id="ArialMT-6c" d="M 409 0 
L 409 4581 
L 972 4581 
L 972 0 
L 409 0 
z
" transform="scale(0.015625)"/>
       <path id="ArialMT-b2" d="M 78 2291 
Q 97 2469 225 2647 
Q 422 2916 872 3242 
Q 1322 3569 1406 3663 
Q 1522 3791 1522 3925 
Q 1522 4075 1412 4172 
Q 1303 4269 1091 4269 
Q 884 4269 782 4195 
Q 681 4122 616 3913 
L 144 3963 
Q 234 4309 457 4473 
Q 681 4638 1100 4638 
Q 1572 4638 1792 4453 
Q 2013 4269 2013 4003 
Q 2013 3741 1828 3506 
Q 1688 3331 1188 2972 
Q 928 2781 819 2669 
L 2025 2669 
L 2025 2291 
L 78 2291 
z
" transform="scale(0.015625)"/>
       <path id="ArialMT-29" d="M 791 -1347 
L 388 -1347 
Q 1322 153 1322 1656 
Q 1322 2244 1188 2822 
Q 1081 3291 891 3722 
Q 769 4003 388 4659 
L 791 4659 
Q 1378 3875 1659 3084 
Q 1900 2403 1900 1659 
Q 1900 816 1576 28 
Q 1253 -759 791 -1347 
z
" transform="scale(0.015625)"/>
      </defs>
      <use xlink:href="#ArialMT-4c"/>
      <use xlink:href="#ArialMT-65" x="55.615234"/>
      <use xlink:href="#ArialMT-61" x="111.230469"/>
      <use xlink:href="#ArialMT-66" x="166.845703"/>
      <use xlink:href="#ArialMT-20" x="194.628906"/>
      <use xlink:href="#ArialMT-61" x="222.412109"/>
      <use xlink:href="#ArialMT-72" x="278.027344"/>
      <use xlink:href="#ArialMT-65" x="311.328125"/>
      <use xlink:href="#ArialMT-61" x="366.943359"/>
      <use xlink:href="#ArialMT-20" x="422.558594"/>
      <use xlink:href="#ArialMT-28" x="450.341797"/>
      <use xlink:href="#ArialMT-70" x="483.642578"/>
      <use xlink:href="#ArialMT-69" x="539.257812"/>
      <use xlink:href="#ArialMT-78" x="561.474609"/>
      <use xlink:href="#ArialMT-65" x="611.474609"/>
      <use xlink:href="#ArialMT-6c" x="667.089844"/>
      <use xlink:href="#ArialMT-73" x="689.306641"/>
      <use xlink:href="#ArialMT-b2" x="739.306641"/>
      <use xlink:href="#ArialMT-29" x="772.607422"/>
     </g>
    </g>
    <g id="text_14">
     <!-- 1e6 -->
     <g style="fill: #262626" transform="translate(46.037656 18.935625) scale(0.09 -0.09)">
      <defs>
       <path id="ArialMT-36" d="M 3184 3459 
L 2625 3416 
Q 2550 3747 2413 3897 
Q 2184 4138 1850 4138 
Q 1581 4138 1378 3988 
Q 1113 3794 959 3422 
Q 806 3050 800 2363 
Q 1003 2672 1297 2822 
Q 1591 2972 1913 2972 
Q 2475 2972 2870 2558 
Q 3266 2144 3266 1488 
Q 3266 1056 3080 686 
Q 2894 316 2569 119 
Q 2244 -78 1831 -78 
Q 1128 -78 684 439 
Q 241 956 241 2144 
Q 241 3472 731 4075 
Q 1159 4600 1884 4600 
Q 2425 4600 2770 4297 
Q 3116 3994 3184 3459 
z
M 888 1484 
Q 888 1194 1011 928 
Q 1134 663 1356 523 
Q 1578 384 1822 384 
Q 2178 384 2434 671 
Q 2691 959 2691 1453 
Q 2691 1928 2437 2201 
Q 2184 2475 1800 2475 
Q 1419 2475 1153 2201 
Q 888 1928 888 1484 
z
" transform="scale(0.015625)"/>
      </defs>
      <use xlink:href="#ArialMT-31"/>
      <use xlink:href="#ArialMT-65" x="55.615234"/>
      <use xlink:href="#ArialMT-36" x="111.230469"/>
     </g>
    </g>
   </g>
   <g id="PolyCollection_1">
    <defs>
     <path id="m85d3b94cfb" d="M 147.366673 -49.439844 
L 140.008639 -49.439844 
L 139.76148 -51.985298 
L 139.504952 -54.530753 
L 139.235911 -57.076207 
L 138.951283 -59.621662 
L 138.648414 -62.167116 
L 138.325414 -64.712571 
L 137.981465 -67.258026 
L 137.617046 -69.80348 
L 137.234059 -72.348935 
L 136.835831 -74.894389 
L 136.426987 -77.439844 
L 136.013208 -79.985298 
L 135.600873 -82.530753 
L 135.196645 -85.076207 
L 134.807001 -87.621662 
L 134.437772 -90.167116 
L 134.093713 -92.712571 
L 133.778151 -95.258026 
L 133.492712 -97.80348 
L 133.237162 -100.348935 
L 133.009353 -102.894389 
L 132.805269 -105.439844 
L 132.619166 -107.985298 
L 132.443769 -110.530753 
L 132.270526 -113.076207 
L 132.089885 -115.621662 
L 131.891572 -118.167116 
L 131.664867 -120.712571 
L 131.398855 -123.258026 
L 131.082652 -125.80348 
L 130.705593 -128.348935 
L 130.257395 -130.894389 
L 129.728286 -133.439844 
L 129.10911 -135.985298 
L 128.391419 -138.530753 
L 127.56756 -141.076207 
L 126.63077 -143.621662 
L 125.575297 -146.167116 
L 124.396548 -148.712571 
L 123.091285 -151.258026 
L 121.657862 -153.80348 
L 120.096497 -156.348935 
L 118.409546 -158.894389 
L 116.601772 -161.439844 
L 114.680549 -163.985298 
L 112.655959 -166.530753 
L 110.540751 -169.076207 
L 108.350109 -171.621662 
L 106.101235 -174.167116 
L 103.812729 -176.712571 
L 101.503809 -179.258026 
L 99.193423 -181.80348 
L 96.899336 -184.348935 
L 94.637279 -186.894389 
L 92.420258 -189.439844 
L 90.258116 -191.985298 
L 88.157415 -194.530753 
L 86.121658 -197.076207 
L 84.151873 -199.621662 
L 82.247481 -202.167116 
L 80.407385 -204.712571 
L 78.631139 -207.258026 
L 76.920083 -209.80348 
L 75.278277 -212.348935 
L 73.713136 -214.894389 
L 72.23566 -217.439844 
L 70.860213 -219.985298 
L 69.603873 -222.530753 
L 68.485394 -225.076207 
L 67.523917 -227.621662 
L 66.737551 -230.167116 
L 66.142007 -232.712571 
L 65.749444 -235.258026 
L 65.567656 -237.80348 
L 65.599719 -240.348935 
L 65.844111 -242.894389 
L 66.295323 -245.439844 
L 66.944844 -247.985298 
L 67.782428 -250.530753 
L 68.79746 -253.076207 
L 69.980251 -255.621662 
L 71.323102 -258.167116 
L 72.820996 -260.712571 
L 74.471828 -263.258026 
L 76.276145 -265.80348 
L 78.23642 -268.348935 
L 80.35595 -270.894389 
L 82.637496 -273.439844 
L 85.081839 -275.985298 
L 87.686398 -278.530753 
L 90.44408 -281.076207 
L 93.34248 -283.621662 
L 96.363523 -286.167116 
L 99.483578 -288.712571 
L 102.674041 -291.258026 
L 105.902327 -293.80348 
L 109.133165 -296.348935 
L 112.330107 -298.894389 
L 115.457099 -301.439844 
L 171.918213 -301.439844 
L 171.918213 -301.439844 
L 175.045205 -298.894389 
L 178.242148 -296.348935 
L 181.472986 -293.80348 
L 184.701271 -291.258026 
L 187.891735 -288.712571 
L 191.01179 -286.167116 
L 194.032832 -283.621662 
L 196.931232 -281.076207 
L 199.688914 -278.530753 
L 202.293473 -275.985298 
L 204.737816 -273.439844 
L 207.019363 -270.894389 
L 209.138892 -268.348935 
L 211.099168 -265.80348 
L 212.903485 -263.258026 
L 214.554317 -260.712571 
L 216.052211 -258.167116 
L 217.395062 -255.621662 
L 218.577853 -253.076207 
L 219.592885 -250.530753 
L 220.430469 -247.985298 
L 221.07999 -245.439844 
L 221.531201 -242.894389 
L 221.775594 -240.348935 
L 221.807656 -237.80348 
L 221.625869 -235.258026 
L 221.233305 -232.712571 
L 220.637761 -230.167116 
L 219.851395 -227.621662 
L 218.889918 -225.076207 
L 217.77144 -222.530753 
L 216.515099 -219.985298 
L 215.139653 -217.439844 
L 213.662176 -214.894389 
L 212.097036 -212.348935 
L 210.45523 -209.80348 
L 208.744173 -207.258026 
L 206.967928 -204.712571 
L 205.127831 -202.167116 
L 203.223439 -199.621662 
L 201.253654 -197.076207 
L 199.217898 -194.530753 
L 197.117196 -191.985298 
L 194.955055 -189.439844 
L 192.738034 -186.894389 
L 190.475976 -184.348935 
L 188.181889 -181.80348 
L 185.871503 -179.258026 
L 183.562583 -176.712571 
L 181.274077 -174.167116 
L 179.025204 -171.621662 
L 176.834562 -169.076207 
L 174.719353 -166.530753 
L 172.694764 -163.985298 
L 170.77354 -161.439844 
L 168.965767 -158.894389 
L 167.278816 -156.348935 
L 165.71745 -153.80348 
L 164.284028 -151.258026 
L 162.978765 -148.712571 
L 161.800015 -146.167116 
L 160.744542 -143.621662 
L 159.807753 -141.076207 
L 158.983894 -138.530753 
L 158.266203 -135.985298 
L 157.647027 -133.439844 
L 157.117917 -130.894389 
L 156.669719 -128.348935 
L 156.292661 -125.80348 
L 155.976457 -123.258026 
L 155.710446 -120.712571 
L 155.483741 -118.167116 
L 155.285428 -115.621662 
L 155.104786 -113.076207 
L 154.931544 -110.530753 
L 154.756146 -107.985298 
L 154.570043 -105.439844 
L 154.36596 -102.894389 
L 154.138151 -100.348935 
L 153.882601 -97.80348 
L 153.597162 -95.258026 
L 153.2816 -92.712571 
L 152.937541 -90.167116 
L 152.568311 -87.621662 
L 152.178667 -85.076207 
L 151.774439 -82.530753 
L 151.362105 -79.985298 
L 150.948325 -77.439844 
L 150.539481 -74.894389 
L 150.141253 -72.348935 
L 149.758266 -69.80348 
L 149.393848 -67.258026 
L 149.049899 -64.712571 
L 148.726899 -62.167116 
L 148.424029 -59.621662 
L 148.139402 -57.076207 
L 147.870361 -54.530753 
L 147.613832 -51.985298 
L 147.366673 -49.439844 
z
" style="stroke: #373737; stroke-width: 1.25"/>
    </defs>
    <g clip-path="url(#pf11f3800f7)">
     <use xlink:href="#m85d3b94cfb" x="0" y="335.975469" style="fill: #cf9939; stroke: #373737; stroke-width: 1.25"/>
    </g>
   </g>
   <g id="PolyCollection_2">
    <defs>
     <path id="mffa5434410" d="M 364.051708 -62.892018 
L 313.923604 -62.892018 
L 311.493014 -63.707806 
L 309.029208 -64.523594 
L 306.547 -65.339383 
L 304.058275 -66.155171 
L 301.57162 -66.970959 
L 299.092297 -67.786747 
L 296.62258 -68.602536 
L 294.162447 -69.418324 
L 291.710546 -70.234112 
L 289.265378 -71.0499 
L 286.826548 -71.865689 
L 284.395995 -72.681477 
L 281.979051 -73.497265 
L 279.585234 -74.313053 
L 277.22869 -75.128842 
L 274.928241 -75.94463 
L 272.707023 -76.760418 
L 270.591737 -77.576206 
L 268.611591 -78.391995 
L 266.796981 -79.207783 
L 265.178039 -80.023571 
L 263.783129 -80.839359 
L 262.637387 -81.655148 
L 261.761396 -82.470936 
L 261.170061 -83.286724 
L 260.87174 -84.102512 
L 260.867656 -84.918301 
L 261.151632 -85.734089 
L 261.710128 -86.549877 
L 262.522599 -87.365665 
L 263.562147 -88.181454 
L 264.796438 -88.997242 
L 266.188867 -89.81303 
L 267.699913 -90.628819 
L 269.288638 -91.444607 
L 270.914283 -92.260395 
L 272.537881 -93.076183 
L 274.12383 -93.891972 
L 275.641343 -94.70776 
L 277.065708 -95.523548 
L 278.379288 -96.339336 
L 279.572187 -97.155125 
L 280.642556 -97.970913 
L 281.596477 -98.786701 
L 282.447442 -99.602489 
L 283.215433 -100.418278 
L 283.925644 -101.234066 
L 284.606928 -102.049854 
L 285.290052 -102.865642 
L 286.005883 -103.681431 
L 286.78362 -104.497219 
L 287.649192 -105.313007 
L 288.623935 -106.128795 
L 289.723615 -106.944584 
L 290.957875 -107.760372 
L 292.330093 -108.57616 
L 293.837661 -109.391948 
L 295.472603 -110.207737 
L 297.222471 -111.023525 
L 299.071411 -111.839313 
L 301.001296 -112.655101 
L 302.992825 -113.47089 
L 305.026506 -114.286678 
L 307.083459 -115.102466 
L 309.146001 -115.918254 
L 311.198009 -116.734043 
L 313.225068 -117.549831 
L 315.214457 -118.365619 
L 317.154995 -119.181407 
L 319.036823 -119.997196 
L 320.851161 -120.812984 
L 322.590083 -121.628772 
L 324.24635 -122.44456 
L 325.813308 -123.260349 
L 327.284868 -124.076137 
L 328.65556 -124.891925 
L 329.920632 -125.707713 
L 331.076206 -126.523502 
L 332.119432 -127.33929 
L 333.048647 -128.155078 
L 333.863518 -128.970866 
L 334.565138 -129.786655 
L 335.156096 -130.602443 
L 335.640493 -131.418231 
L 336.023914 -132.23402 
L 336.313367 -133.049808 
L 336.517165 -133.865596 
L 336.644785 -134.681384 
L 336.706679 -135.497173 
L 336.71405 -136.312961 
L 336.678594 -137.128749 
L 336.612203 -137.944537 
L 336.526649 -138.760326 
L 336.433239 -139.576114 
L 336.342471 -140.391902 
L 336.263703 -141.20769 
L 336.204853 -142.023479 
L 336.172155 -142.839267 
L 336.169992 -143.655055 
L 341.80532 -143.655055 
L 341.80532 -143.655055 
L 341.803157 -142.839267 
L 341.77046 -142.023479 
L 341.71161 -141.20769 
L 341.632841 -140.391902 
L 341.542073 -139.576114 
L 341.448663 -138.760326 
L 341.363109 -137.944537 
L 341.296719 -137.128749 
L 341.261262 -136.312961 
L 341.268633 -135.497173 
L 341.330527 -134.681384 
L 341.458148 -133.865596 
L 341.661946 -133.049808 
L 341.951398 -132.23402 
L 342.33482 -131.418231 
L 342.819216 -130.602443 
L 343.410175 -129.786655 
L 344.111795 -128.970866 
L 344.926665 -128.155078 
L 345.855881 -127.33929 
L 346.899106 -126.523502 
L 348.05468 -125.707713 
L 349.319753 -124.891925 
L 350.690444 -124.076137 
L 352.162005 -123.260349 
L 353.728962 -122.44456 
L 355.385229 -121.628772 
L 357.124151 -120.812984 
L 358.938489 -119.997196 
L 360.820318 -119.181407 
L 362.760855 -118.365619 
L 364.750244 -117.549831 
L 366.777304 -116.734043 
L 368.829311 -115.918254 
L 370.891854 -115.102466 
L 372.948807 -114.286678 
L 374.982488 -113.47089 
L 376.974016 -112.655101 
L 378.903901 -111.839313 
L 380.752841 -111.023525 
L 382.502709 -110.207737 
L 384.137651 -109.391948 
L 385.645219 -108.57616 
L 387.017438 -107.760372 
L 388.251698 -106.944584 
L 389.351378 -106.128795 
L 390.326121 -105.313007 
L 391.191693 -104.497219 
L 391.96943 -103.681431 
L 392.68526 -102.865642 
L 393.368384 -102.049854 
L 394.049668 -101.234066 
L 394.75988 -100.418278 
L 395.527871 -99.602489 
L 396.378836 -98.786701 
L 397.332756 -97.970913 
L 398.403125 -97.155125 
L 399.596025 -96.339336 
L 400.909604 -95.523548 
L 402.33397 -94.70776 
L 403.851482 -93.891972 
L 405.437431 -93.076183 
L 407.061029 -92.260395 
L 408.686674 -91.444607 
L 410.275399 -90.628819 
L 411.786445 -89.81303 
L 413.178875 -88.997242 
L 414.413166 -88.181454 
L 415.452713 -87.365665 
L 416.265184 -86.549877 
L 416.82368 -85.734089 
L 417.107656 -84.918301 
L 417.103573 -84.102512 
L 416.805251 -83.286724 
L 416.213917 -82.470936 
L 415.337925 -81.655148 
L 414.192183 -80.839359 
L 412.797273 -80.023571 
L 411.178331 -79.207783 
L 409.363721 -78.391995 
L 407.383575 -77.576206 
L 405.26829 -76.760418 
L 403.047071 -75.94463 
L 400.746623 -75.128842 
L 398.390079 -74.313053 
L 395.996261 -73.497265 
L 393.579317 -72.681477 
L 391.148765 -71.865689 
L 388.709935 -71.0499 
L 386.264766 -70.234112 
L 383.812866 -69.418324 
L 381.352732 -68.602536 
L 378.883016 -67.786747 
L 376.403692 -66.970959 
L 373.917037 -66.155171 
L 371.428313 -65.339383 
L 368.946104 -64.523594 
L 366.482298 -63.707806 
L 364.051708 -62.892018 
z
" style="stroke: #373737; stroke-width: 1.25"/>
    </defs>
    <g clip-path="url(#pf11f3800f7)">
     <use xlink:href="#mffa5434410" x="0" y="335.975469" style="fill: #397e51; stroke: #373737; stroke-width: 1.25"/>
    </g>
   </g>
   <g id="line2d_10">
    <path d="M 88.240232 141.545067 
L 199.135081 141.545067 
" clip-path="url(#pf11f3800f7)" style="fill: none; stroke-dasharray: 1.5625,0.9375; stroke-dashoffset: 0; stroke: #373737; stroke-width: 1.25"/>
   </g>
   <g id="line2d_11">
    <path d="M 66.029075 102.530622 
L 221.346238 102.530622 
" clip-path="url(#pf11f3800f7)" style="fill: none; stroke-dasharray: 3.125,1.25; stroke-dashoffset: 0; stroke: #373737; stroke-width: 1.25"/>
   </g>
   <g id="line2d_12">
    <path d="M 72.287126 76.170132 
L 215.088186 76.170132 
" clip-path="url(#pf11f3800f7)" style="fill: none; stroke-dasharray: 1.5625,0.9375; stroke-dashoffset: 0; stroke: #373737; stroke-width: 1.25"/>
   </g>
   <g id="line2d_13">
    <path d="M 267.011429 256.864094 
L 410.963884 256.864094 
" clip-path="url(#pf11f3800f7)" style="fill: none; stroke-dasharray: 1.5625,0.9375; stroke-dashoffset: 0; stroke: #373737; stroke-width: 1.25"/>
   </g>
   <g id="line2d_14">
    <path d="M 262.302765 248.830536 
L 415.672548 248.830536 
" clip-path="url(#pf11f3800f7)" style="fill: none; stroke-dasharray: 3.125,1.25; stroke-dashoffset: 0; stroke: #373737; stroke-width: 1.25"/>
   </g>
   <g id="line2d_15">
    <path d="M 284.995652 233.4614 
L 392.979661 233.4614 
" clip-path="url(#pf11f3800f7)" style="fill: none; stroke-dasharray: 1.5625,0.9375; stroke-dashoffset: 0; stroke: #373737; stroke-width: 1.25"/>
   </g>
   <g id="patch_3">
    <path d="M 46.037656 299.135625 
L 46.037656 21.935625 
" style="fill: none; stroke: #cccccc; stroke-width: 0.8; stroke-linejoin: miter; stroke-linecap: square"/>
   </g>
   <g id="patch_4">
    <path d="M 436.637656 299.135625 
L 436.637656 21.935625 
" style="fill: none; stroke: #cccccc; stroke-width: 0.8; stroke-linejoin: miter; stroke-linecap: square"/>
   </g>
   <g id="patch_5">
    <path d="M 46.037656 299.135625 
L 436.637656 299.135625 
" style="fill: none; stroke: #cccccc; stroke-width: 0.8; stroke-linejoin: miter; stroke-linecap: square"/>
   </g>
   <g id="patch_6">
    <path d="M 46.037656 21.935625 
L 436.637656 21.935625 
" style="fill: none; stroke: #cccccc; stroke-width: 0.8; stroke-linejoin: miter; stroke-linecap: square"/>
   </g>
   <g id="PathCollection_1">
    <defs>
     <path id="m5219b9daae" d="M 0 1.5 
C 0.397805 1.5 0.77937 1.341951 1.06066 1.06066 
C 1.341951 0.77937 1.5 0.397805 1.5 0 
C 1.5 -0.397805 1.341951 -0.77937 1.06066 -1.06066 
C 0.77937 -1.341951 0.397805 -1.5 0 -1.5 
C -0.397805 -1.5 -0.77937 -1.341951 -1.06066 -1.06066 
C -1.341951 -0.77937 -1.5 -0.397805 -1.5 0 
C -1.5 0.397805 -1.341951 0.77937 -1.06066 1.06066 
C -0.77937 1.341951 -0.397805 1.5 0 1.5 
z
"/>
    </defs>
    <g clip-path="url(#pf11f3800f7)">
     <use xlink:href="#m5219b9daae" x="177.866109" y="108.546386" style="fill-opacity: 0.4"/>
     <use xlink:href="#m5219b9daae" x="160.261489" y="49.367748" style="fill-opacity: 0.4"/>
     <use xlink:href="#m5219b9daae" x="182.364776" y="117.733732" style="fill-opacity: 0.4"/>
     <use xlink:href="#m5219b9daae" x="135.681777" y="138.934394" style="fill-opacity: 0.4"/>
     <use xlink:href="#m5219b9daae" x="173.99066" y="34.535625" style="fill-opacity: 0.4"/>
     <use xlink:href="#m5219b9daae" x="126.266191" y="51.29548" style="fill-opacity: 0.4"/>
     <use xlink:href="#m5219b9daae" x="150.178738" y="133.543978" style="fill-opacity: 0.4"/>
     <use xlink:href="#m5219b9daae" x="136.312779" y="63.156053" style="fill-opacity: 0.4"/>
     <use xlink:href="#m5219b9daae" x="180.154298" y="78.977101" style="fill-opacity: 0.4"/>
     <use xlink:href="#m5219b9daae" x="120.075781" y="176.60111" style="fill-opacity: 0.4"/>
     <use xlink:href="#m5219b9daae" x="169.939903" y="151.867926" style="fill-opacity: 0.4"/>
     <use xlink:href="#m5219b9daae" x="121.426083" y="61.028224" style="fill-opacity: 0.4"/>
     <use xlink:href="#m5219b9daae" x="166.873215" y="109.854611" style="fill-opacity: 0.4"/>
     <use xlink:href="#m5219b9daae" x="137.165995" y="94.896502" style="fill-opacity: 0.4"/>
     <use xlink:href="#m5219b9daae" x="157.288767" y="43.588067" style="fill-opacity: 0.4"/>
     <use xlink:href="#m5219b9daae" x="161.980164" y="56.306806" style="fill-opacity: 0.4"/>
     <use xlink:href="#m5219b9daae" x="164.66907" y="142.415291" style="fill-opacity: 0.4"/>
     <use xlink:href="#m5219b9daae" x="181.57044" y="100.909188" style="fill-opacity: 0.4"/>
     <use xlink:href="#m5219b9daae" x="162.275381" y="100.180526" style="fill-opacity: 0.4"/>
     <use xlink:href="#m5219b9daae" x="105.266077" y="155.322319" style="fill-opacity: 0.4"/>
     <use xlink:href="#m5219b9daae" x="149.638253" y="210.961651" style="fill-opacity: 0.4"/>
     <use xlink:href="#m5219b9daae" x="124.076008" y="241.737543" style="fill-opacity: 0.4"/>
     <use xlink:href="#m5219b9daae" x="163.738251" y="232.619281" style="fill-opacity: 0.4"/>
     <use xlink:href="#m5219b9daae" x="147.153474" y="248.711646" style="fill-opacity: 0.4"/>
     <use xlink:href="#m5219b9daae" x="152.333058" y="286.535625" style="fill-opacity: 0.4"/>
     <use xlink:href="#m5219b9daae" x="160.058073" y="60.340511" style="fill-opacity: 0.4"/>
     <use xlink:href="#m5219b9daae" x="151.678768" y="61.954847" style="fill-opacity: 0.4"/>
     <use xlink:href="#m5219b9daae" x="164.750046" y="131.109787" style="fill-opacity: 0.4"/>
     <use xlink:href="#m5219b9daae" x="121.472099" y="104.152055" style="fill-opacity: 0.4"/>
     <use xlink:href="#m5219b9daae" x="181.915225" y="98.773069" style="fill-opacity: 0.4"/>
     <use xlink:href="#m5219b9daae" x="168.938833" y="77.359499" style="fill-opacity: 0.4"/>
     <use xlink:href="#m5219b9daae" x="172.043157" y="92.726719" style="fill-opacity: 0.4"/>
     <use xlink:href="#m5219b9daae" x="162.53229" y="172.748031" style="fill-opacity: 0.4"/>
     <use xlink:href="#m5219b9daae" x="149.639231" y="119.347943" style="fill-opacity: 0.4"/>
     <use xlink:href="#m5219b9daae" x="127.609542" y="118.694773" style="fill-opacity: 0.4"/>
     <use xlink:href="#m5219b9daae" x="163.02684" y="75.773676" style="fill-opacity: 0.4"/>
     <use xlink:href="#m5219b9daae" x="175.982193" y="93.847535" style="fill-opacity: 0.4"/>
     <use xlink:href="#m5219b9daae" x="179.245673" y="148.754563" style="fill-opacity: 0.4"/>
     <use xlink:href="#m5219b9daae" x="182.245733" y="136.159298" style="fill-opacity: 0.4"/>
     <use xlink:href="#m5219b9daae" x="126.899733" y="151.92131" style="fill-opacity: 0.4"/>
     <use xlink:href="#m5219b9daae" x="151.408696" y="61.028224" style="fill-opacity: 0.4"/>
     <use xlink:href="#m5219b9daae" x="175.649704" y="109.854611" style="fill-opacity: 0.4"/>
     <use xlink:href="#m5219b9daae" x="180.746099" y="94.896502" style="fill-opacity: 0.4"/>
     <use xlink:href="#m5219b9daae" x="180.859985" y="43.588067" style="fill-opacity: 0.4"/>
     <use xlink:href="#m5219b9daae" x="173.867281" y="56.306806" style="fill-opacity: 0.4"/>
     <use xlink:href="#m5219b9daae" x="120.580423" y="142.415291" style="fill-opacity: 0.4"/>
     <use xlink:href="#m5219b9daae" x="115.646836" y="100.909188" style="fill-opacity: 0.4"/>
     <use xlink:href="#m5219b9daae" x="127.43096" y="100.180526" style="fill-opacity: 0.4"/>
     <use xlink:href="#m5219b9daae" x="115.562269" y="60.340511" style="fill-opacity: 0.4"/>
     <use xlink:href="#m5219b9daae" x="106.877243" y="61.954847" style="fill-opacity: 0.4"/>
     <use xlink:href="#m5219b9daae" x="150.501373" y="131.109787" style="fill-opacity: 0.4"/>
     <use xlink:href="#m5219b9daae" x="147.628083" y="104.152055" style="fill-opacity: 0.4"/>
     <use xlink:href="#m5219b9daae" x="181.567198" y="98.773069" style="fill-opacity: 0.4"/>
     <use xlink:href="#m5219b9daae" x="159.501706" y="77.359499" style="fill-opacity: 0.4"/>
     <use xlink:href="#m5219b9daae" x="159.461904" y="92.726719" style="fill-opacity: 0.4"/>
     <use xlink:href="#m5219b9daae" x="127.34515" y="119.347943" style="fill-opacity: 0.4"/>
     <use xlink:href="#m5219b9daae" x="171.568022" y="118.694773" style="fill-opacity: 0.4"/>
     <use xlink:href="#m5219b9daae" x="151.592468" y="75.773676" style="fill-opacity: 0.4"/>
     <use xlink:href="#m5219b9daae" x="174.805012" y="93.847535" style="fill-opacity: 0.4"/>
     <use xlink:href="#m5219b9daae" x="154.388542" y="148.754563" style="fill-opacity: 0.4"/>
     <use xlink:href="#m5219b9daae" x="179.879396" y="136.159298" style="fill-opacity: 0.4"/>
     <use xlink:href="#m5219b9daae" x="109.076537" y="151.92131" style="fill-opacity: 0.4"/>
     <use xlink:href="#m5219b9daae" x="153.936369" y="209.708694" style="fill-opacity: 0.4"/>
     <use xlink:href="#m5219b9daae" x="121.938319" y="59.258132" style="fill-opacity: 0.4"/>
     <use xlink:href="#m5219b9daae" x="164.140213" y="74.490196" style="fill-opacity: 0.4"/>
     <use xlink:href="#m5219b9daae" x="106.169108" y="137.752909" style="fill-opacity: 0.4"/>
     <use xlink:href="#m5219b9daae" x="154.219067" y="95.198719" style="fill-opacity: 0.4"/>
     <use xlink:href="#m5219b9daae" x="109.88769" y="89.538116" style="fill-opacity: 0.4"/>
     <use xlink:href="#m5219b9daae" x="108.49485" y="180.987276" style="fill-opacity: 0.4"/>
     <use xlink:href="#m5219b9daae" x="154.884344" y="182.173408" style="fill-opacity: 0.4"/>
    </g>
   </g>
   <g id="PathCollection_2">
    <g clip-path="url(#pf11f3800f7)">
     <use xlink:href="#m5219b9daae" x="315.109454" y="228.670237" style="fill-opacity: 0.4"/>
     <use xlink:href="#m5219b9daae" x="334.27771" y="253.147805" style="fill-opacity: 0.4"/>
     <use xlink:href="#m5219b9daae" x="327.702218" y="248.56619" style="fill-opacity: 0.4"/>
     <use xlink:href="#m5219b9daae" x="339.054894" y="249.094881" style="fill-opacity: 0.4"/>
     <use xlink:href="#m5219b9daae" x="336.852619" y="256.218586" style="fill-opacity: 0.4"/>
     <use xlink:href="#m5219b9daae" x="315.027719" y="243.515046" style="fill-opacity: 0.4"/>
     <use xlink:href="#m5219b9daae" x="330.162507" y="256.737103" style="fill-opacity: 0.4"/>
     <use xlink:href="#m5219b9daae" x="358.025198" y="260.457663" style="fill-opacity: 0.4"/>
     <use xlink:href="#m5219b9daae" x="364.19166" y="220.931547" style="fill-opacity: 0.4"/>
     <use xlink:href="#m5219b9daae" x="309.721291" y="253.739804" style="fill-opacity: 0.4"/>
     <use xlink:href="#m5219b9daae" x="374.05976" y="235.141273" style="fill-opacity: 0.4"/>
     <use xlink:href="#m5219b9daae" x="341.000893" y="249.689643" style="fill-opacity: 0.4"/>
     <use xlink:href="#m5219b9daae" x="372.685621" y="228.575527" style="fill-opacity: 0.4"/>
     <use xlink:href="#m5219b9daae" x="345.869749" y="239.464886" style="fill-opacity: 0.4"/>
     <use xlink:href="#m5219b9daae" x="308.22136" y="234.742337" style="fill-opacity: 0.4"/>
     <use xlink:href="#m5219b9daae" x="374.778008" y="213.870647" style="fill-opacity: 0.4"/>
     <use xlink:href="#m5219b9daae" x="360.103133" y="228.290519" style="fill-opacity: 0.4"/>
     <use xlink:href="#m5219b9daae" x="318.919097" y="244.142718" style="fill-opacity: 0.4"/>
     <use xlink:href="#m5219b9daae" x="315.464149" y="231.330651" style="fill-opacity: 0.4"/>
     <use xlink:href="#m5219b9daae" x="376.02361" y="226.113828" style="fill-opacity: 0.4"/>
     <use xlink:href="#m5219b9daae" x="305.218351" y="241.300421" style="fill-opacity: 0.4"/>
     <use xlink:href="#m5219b9daae" x="301.388559" y="261.336052" style="fill-opacity: 0.4"/>
     <use xlink:href="#m5219b9daae" x="366.431039" y="232.654829" style="fill-opacity: 0.4"/>
     <use xlink:href="#m5219b9daae" x="342.601083" y="239.194071" style="fill-opacity: 0.4"/>
     <use xlink:href="#m5219b9daae" x="336.228124" y="226.938079" style="fill-opacity: 0.4"/>
     <use xlink:href="#m5219b9daae" x="373.870421" y="228.366136" style="fill-opacity: 0.4"/>
     <use xlink:href="#m5219b9daae" x="307.998181" y="233.034421" style="fill-opacity: 0.4"/>
     <use xlink:href="#m5219b9daae" x="331.924061" y="221.621521" style="fill-opacity: 0.4"/>
     <use xlink:href="#m5219b9daae" x="301.024365" y="220.329625" style="fill-opacity: 0.4"/>
     <use xlink:href="#m5219b9daae" x="369.766082" y="215.527942" style="fill-opacity: 0.4"/>
     <use xlink:href="#m5219b9daae" x="338.342028" y="250.39871" style="fill-opacity: 0.4"/>
     <use xlink:href="#m5219b9daae" x="300.643677" y="244.990458" style="fill-opacity: 0.4"/>
     <use xlink:href="#m5219b9daae" x="357.305273" y="269.855909" style="fill-opacity: 0.4"/>
     <use xlink:href="#m5219b9daae" x="322.602087" y="256.906425" style="fill-opacity: 0.4"/>
     <use xlink:href="#m5219b9daae" x="312.273324" y="267.230917" style="fill-opacity: 0.4"/>
     <use xlink:href="#m5219b9daae" x="345.385238" y="258.509959" style="fill-opacity: 0.4"/>
     <use xlink:href="#m5219b9daae" x="325.904528" y="266.826705" style="fill-opacity: 0.4"/>
     <use xlink:href="#m5219b9daae" x="352.705453" y="273.083451" style="fill-opacity: 0.4"/>
     <use xlink:href="#m5219b9daae" x="338.745778" y="249.875169" style="fill-opacity: 0.4"/>
     <use xlink:href="#m5219b9daae" x="303.288644" y="265.073193" style="fill-opacity: 0.4"/>
     <use xlink:href="#m5219b9daae" x="369.878104" y="228.670237" style="fill-opacity: 0.4"/>
     <use xlink:href="#m5219b9daae" x="310.309528" y="253.147805" style="fill-opacity: 0.4"/>
     <use xlink:href="#m5219b9daae" x="327.442802" y="248.56619" style="fill-opacity: 0.4"/>
     <use xlink:href="#m5219b9daae" x="355.092347" y="249.094881" style="fill-opacity: 0.4"/>
     <use xlink:href="#m5219b9daae" x="331.694782" y="256.218586" style="fill-opacity: 0.4"/>
     <use xlink:href="#m5219b9daae" x="335.443656" y="243.515046" style="fill-opacity: 0.4"/>
     <use xlink:href="#m5219b9daae" x="353.03347" y="256.737103" style="fill-opacity: 0.4"/>
     <use xlink:href="#m5219b9daae" x="314.893213" y="260.457663" style="fill-opacity: 0.4"/>
     <use xlink:href="#m5219b9daae" x="308.4802" y="220.931547" style="fill-opacity: 0.4"/>
     <use xlink:href="#m5219b9daae" x="373.13072" y="253.739804" style="fill-opacity: 0.4"/>
     <use xlink:href="#m5219b9daae" x="343.500042" y="235.141273" style="fill-opacity: 0.4"/>
     <use xlink:href="#m5219b9daae" x="329.745229" y="249.689643" style="fill-opacity: 0.4"/>
     <use xlink:href="#m5219b9daae" x="366.529032" y="239.464886" style="fill-opacity: 0.4"/>
     <use xlink:href="#m5219b9daae" x="344.687902" y="234.742337" style="fill-opacity: 0.4"/>
     <use xlink:href="#m5219b9daae" x="375.226915" y="244.142718" style="fill-opacity: 0.4"/>
     <use xlink:href="#m5219b9daae" x="322.064878" y="250.706203" style="fill-opacity: 0.4"/>
     <use xlink:href="#m5219b9daae" x="330.418588" y="257.649281" style="fill-opacity: 0.4"/>
     <use xlink:href="#m5219b9daae" x="317.864554" y="242.458166" style="fill-opacity: 0.4"/>
     <use xlink:href="#m5219b9daae" x="347.708045" y="250.39871" style="fill-opacity: 0.4"/>
     <use xlink:href="#m5219b9daae" x="331.017126" y="244.990458" style="fill-opacity: 0.4"/>
     <use xlink:href="#m5219b9daae" x="372.252541" y="269.855909" style="fill-opacity: 0.4"/>
     <use xlink:href="#m5219b9daae" x="375.681212" y="256.906425" style="fill-opacity: 0.4"/>
     <use xlink:href="#m5219b9daae" x="372.866331" y="267.230917" style="fill-opacity: 0.4"/>
     <use xlink:href="#m5219b9daae" x="359.549423" y="258.509959" style="fill-opacity: 0.4"/>
     <use xlink:href="#m5219b9daae" x="365.309168" y="266.826705" style="fill-opacity: 0.4"/>
     <use xlink:href="#m5219b9daae" x="357.111744" y="229.097184" style="fill-opacity: 0.4"/>
     <use xlink:href="#m5219b9daae" x="328.034415" y="273.083451" style="fill-opacity: 0.4"/>
     <use xlink:href="#m5219b9daae" x="333.499114" y="249.875169" style="fill-opacity: 0.4"/>
     <use xlink:href="#m5219b9daae" x="372.815746" y="265.073193" style="fill-opacity: 0.4"/>
     <use xlink:href="#m5219b9daae" x="309.183709" y="192.320414" style="fill-opacity: 0.4"/>
    </g>
   </g>
   <g id="text_15">
    <!-- Distribution of extracted leaf area, grouped by species -->
    <g style="fill: #262626" transform="translate(97.933906 15.935625) scale(0.12 -0.12)">
     <defs>
      <path id="ArialMT-44" d="M 494 0 
L 494 4581 
L 2072 4581 
Q 2606 4581 2888 4516 
Q 3281 4425 3559 4188 
Q 3922 3881 4101 3404 
Q 4281 2928 4281 2316 
Q 4281 1794 4159 1391 
Q 4038 988 3847 723 
Q 3656 459 3429 307 
Q 3203 156 2883 78 
Q 2563 0 2147 0 
L 494 0 
z
M 1100 541 
L 2078 541 
Q 2531 541 2789 625 
Q 3047 709 3200 863 
Q 3416 1078 3536 1442 
Q 3656 1806 3656 2325 
Q 3656 3044 3420 3430 
Q 3184 3816 2847 3947 
Q 2603 4041 2063 4041 
L 1100 4041 
L 1100 541 
z
" transform="scale(0.015625)"/>
      <path id="ArialMT-74" d="M 1650 503 
L 1731 6 
Q 1494 -44 1306 -44 
Q 1000 -44 831 53 
Q 663 150 594 308 
Q 525 466 525 972 
L 525 2881 
L 113 2881 
L 113 3319 
L 525 3319 
L 525 4141 
L 1084 4478 
L 1084 3319 
L 1650 3319 
L 1650 2881 
L 1084 2881 
L 1084 941 
Q 1084 700 1114 631 
Q 1144 563 1211 522 
Q 1278 481 1403 481 
Q 1497 481 1650 503 
z
" transform="scale(0.015625)"/>
      <path id="ArialMT-75" d="M 2597 0 
L 2597 488 
Q 2209 -75 1544 -75 
Q 1250 -75 995 37 
Q 741 150 617 320 
Q 494 491 444 738 
Q 409 903 409 1263 
L 409 3319 
L 972 3319 
L 972 1478 
Q 972 1038 1006 884 
Q 1059 663 1231 536 
Q 1403 409 1656 409 
Q 1909 409 2131 539 
Q 2353 669 2445 892 
Q 2538 1116 2538 1541 
L 2538 3319 
L 3100 3319 
L 3100 0 
L 2597 0 
z
" transform="scale(0.015625)"/>
      <path id="ArialMT-64" d="M 2575 0 
L 2575 419 
Q 2259 -75 1647 -75 
Q 1250 -75 917 144 
Q 584 363 401 755 
Q 219 1147 219 1656 
Q 219 2153 384 2558 
Q 550 2963 881 3178 
Q 1213 3394 1622 3394 
Q 1922 3394 2156 3267 
Q 2391 3141 2538 2938 
L 2538 4581 
L 3097 4581 
L 3097 0 
L 2575 0 
z
M 797 1656 
Q 797 1019 1065 703 
Q 1334 388 1700 388 
Q 2069 388 2326 689 
Q 2584 991 2584 1609 
Q 2584 2291 2321 2609 
Q 2059 2928 1675 2928 
Q 1300 2928 1048 2622 
Q 797 2316 797 1656 
z
" transform="scale(0.015625)"/>
      <path id="ArialMT-2c" d="M 569 0 
L 569 641 
L 1209 641 
L 1209 0 
Q 1209 -353 1084 -570 
Q 959 -788 688 -906 
L 531 -666 
Q 709 -588 793 -436 
Q 878 -284 888 0 
L 569 0 
z
" transform="scale(0.015625)"/>
      <path id="ArialMT-67" d="M 319 -275 
L 866 -356 
Q 900 -609 1056 -725 
Q 1266 -881 1628 -881 
Q 2019 -881 2231 -725 
Q 2444 -569 2519 -288 
Q 2563 -116 2559 434 
Q 2191 0 1641 0 
Q 956 0 581 494 
Q 206 988 206 1678 
Q 206 2153 378 2554 
Q 550 2956 876 3175 
Q 1203 3394 1644 3394 
Q 2231 3394 2613 2919 
L 2613 3319 
L 3131 3319 
L 3131 450 
Q 3131 -325 2973 -648 
Q 2816 -972 2473 -1159 
Q 2131 -1347 1631 -1347 
Q 1038 -1347 672 -1080 
Q 306 -813 319 -275 
z
M 784 1719 
Q 784 1066 1043 766 
Q 1303 466 1694 466 
Q 2081 466 2343 764 
Q 2606 1063 2606 1700 
Q 2606 2309 2336 2618 
Q 2066 2928 1684 2928 
Q 1309 2928 1046 2623 
Q 784 2319 784 1719 
z
" transform="scale(0.015625)"/>
     </defs>
     <use xlink:href="#ArialMT-44"/>
     <use xlink:href="#ArialMT-69" x="72.216797"/>
     <use xlink:href="#ArialMT-73" x="94.433594"/>
     <use xlink:href="#ArialMT-74" x="144.433594"/>
     <use xlink:href="#ArialMT-72" x="172.216797"/>
     <use xlink:href="#ArialMT-69" x="205.517578"/>
     <use xlink:href="#ArialMT-62" x="227.734375"/>
     <use xlink:href="#ArialMT-75" x="283.349609"/>
     <use xlink:href="#ArialMT-74" x="338.964844"/>
     <use xlink:href="#ArialMT-69" x="366.748047"/>
     <use xlink:href="#ArialMT-6f" x="388.964844"/>
     <use xlink:href="#ArialMT-6e" x="444.580078"/>
     <use xlink:href="#ArialMT-20" x="500.195312"/>
     <use xlink:href="#ArialMT-6f" x="527.978516"/>
     <use xlink:href="#ArialMT-66" x="583.59375"/>
     <use xlink:href="#ArialMT-20" x="611.376953"/>
     <use xlink:href="#ArialMT-65" x="639.160156"/>
     <use xlink:href="#ArialMT-78" x="694.775391"/>
     <use xlink:href="#ArialMT-74" x="744.775391"/>
     <use xlink:href="#ArialMT-72" x="772.558594"/>
     <use xlink:href="#ArialMT-61" x="805.859375"/>
     <use xlink:href="#ArialMT-63" x="861.474609"/>
     <use xlink:href="#ArialMT-74" x="911.474609"/>
     <use xlink:href="#ArialMT-65" x="939.257812"/>
     <use xlink:href="#ArialMT-64" x="994.873047"/>
     <use xlink:href="#ArialMT-20" x="1050.488281"/>
     <use xlink:href="#ArialMT-6c" x="1078.271484"/>
     <use xlink:href="#ArialMT-65" x="1100.488281"/>
     <use xlink:href="#ArialMT-61" x="1156.103516"/>
     <use xlink:href="#ArialMT-66" x="1211.71875"/>
     <use xlink:href="#ArialMT-20" x="1239.501953"/>
     <use xlink:href="#ArialMT-61" x="1267.285156"/>
     <use xlink:href="#ArialMT-72" x="1322.900391"/>
     <use xlink:href="#ArialMT-65" x="1356.201172"/>
     <use xlink:href="#ArialMT-61" x="1411.816406"/>
     <use xlink:href="#ArialMT-2c" x="1467.431641"/>
     <use xlink:href="#ArialMT-20" x="1495.214844"/>
     <use xlink:href="#ArialMT-67" x="1522.998047"/>
     <use xlink:href="#ArialMT-72" x="1578.613281"/>
     <use xlink:href="#ArialMT-6f" x="1611.914062"/>
     <use xlink:href="#ArialMT-75" x="1667.529297"/>
     <use xlink:href="#ArialMT-70" x="1723.144531"/>
     <use xlink:href="#ArialMT-65" x="1778.759766"/>
     <use xlink:href="#ArialMT-64" x="1834.375"/>
     <use xlink:href="#ArialMT-20" x="1889.990234"/>
     <use xlink:href="#ArialMT-62" x="1917.773438"/>
     <use xlink:href="#ArialMT-79" x="1973.388672"/>
     <use xlink:href="#ArialMT-20" x="2023.388672"/>
     <use xlink:href="#ArialMT-73" x="2051.171875"/>
     <use xlink:href="#ArialMT-70" x="2101.171875"/>
     <use xlink:href="#ArialMT-65" x="2156.787109"/>
     <use xlink:href="#ArialMT-63" x="2212.402344"/>
     <use xlink:href="#ArialMT-69" x="2262.402344"/>
     <use xlink:href="#ArialMT-65" x="2284.619141"/>
     <use xlink:href="#ArialMT-73" x="2340.234375"/>
    </g>
   </g>
  </g>
 </g>
 <defs>
  <clipPath id="pf11f3800f7">
   <rect x="46.037656" y="21.935625" width="390.6" height="277.2"/>
  </clipPath>
 </defs>
</svg>
